STARTFONT 2.1
FONT -sun-helmet-medium-i-normal--10-100-75-75-p-55-adobe-fontspecific
SIZE 10 75 75
FONTBOUNDINGBOX 12 12 -1 -2

STARTPROPERTIES 28
FOUNDRY "sun"
FAMILY_NAME "helmet"
WEIGHT_NAME "medium"
SLANT "i"
SETWIDTH_NAME "normal"
ADD_STYLE_NAME ""
PIXEL_SIZE 10
POINT_SIZE 100
RESOLUTION_X 75
RESOLUTION_Y 75
SPACING "p"
AVERAGE_WIDTH 55
CHARSET_REGISTRY "adobe"
CHARSET_ENCODING "fontspecific"
COPYRIGHT "© 1999 Sun Microsystems, Inc."
RAW_PIXELSIZE 1000
RAW_POINTSIZE 964
RAW_ASCENT 915
RAW_DESCENT 196
RAW_AVERAGE_WIDTH 5251
FACE_NAME "HelmetItalicalic5"
_XMBDFED_INFO "Edited with xmbdfed 2.4."
WEIGHT 10
X_HEIGHT -1
QUAD_WIDTH 5
DEFAULT_CHAR 4
FONT_DESCENT 2
FONT_ASCENT 10
ENDPROPERTIES

CHARS 202

STARTCHAR char32
ENCODING 32
SWIDTH 25 0
DWIDTH 3 0
BBX 0 0 0 0
BITMAP
ENDCHAR

STARTCHAR char33
ENCODING 33
SWIDTH 25 0
DWIDTH 3 0
BBX 2 7 1 0
BITMAP
40
40
40
80
80
00
80
ENDCHAR

STARTCHAR char34
ENCODING 34
SWIDTH 34 0
DWIDTH 4 0
BBX 4 2 1 5
BITMAP
60
A0
ENDCHAR

STARTCHAR char35
ENCODING 35
SWIDTH 51 0
DWIDTH 6 0
BBX 5 8 0 0
BITMAP
28
28
28
78
50
F8
50
50
ENDCHAR

STARTCHAR char36
ENCODING 36
SWIDTH 51 0
DWIDTH 6 0
BBX 6 9 0 -1
BITMAP
10
78
54
70
30
28
A8
70
20
ENDCHAR

STARTCHAR char37
ENCODING 37
SWIDTH 77 0
DWIDTH 9 0
BBX 8 7 0 0
BITMAP
74
94
9B
ED
15
15
26
ENDCHAR

STARTCHAR char38
ENCODING 38
SWIDTH 60 0
DWIDTH 7 0
BBX 6 7 0 0
BITMAP
18
28
10
70
94
88
74
ENDCHAR

STARTCHAR char39
ENCODING 39
SWIDTH 17 0
DWIDTH 2 0
BBX 2 3 1 5
BITMAP
40
40
80
ENDCHAR

STARTCHAR char40
ENCODING 40
SWIDTH 25 0
DWIDTH 3 0
BBX 3 9 1 -2
BITMAP
20
40
40
80
80
80
80
80
80
ENDCHAR

STARTCHAR char41
ENCODING 41
SWIDTH 25 0
DWIDTH 3 0
BBX 3 9 -1 -2
BITMAP
20
20
20
20
20
20
40
40
80
ENDCHAR

STARTCHAR char42
ENCODING 42
SWIDTH 34 0
DWIDTH 4 0
BBX 4 3 1 4
BITMAP
F0
40
A0
ENDCHAR

STARTCHAR char43
ENCODING 43
SWIDTH 60 0
DWIDTH 7 0
BBX 6 6 1 0
BITMAP
20
20
FC
20
20
20
ENDCHAR

STARTCHAR char44
ENCODING 44
SWIDTH 17 0
DWIDTH 2 0
BBX 1 3 0 -2
BITMAP
80
80
80
ENDCHAR

STARTCHAR char45
ENCODING 45
SWIDTH 34 0
DWIDTH 4 0
BBX 4 1 0 2
BITMAP
E0
ENDCHAR

STARTCHAR char46
ENCODING 46
SWIDTH 17 0
DWIDTH 2 0
BBX 1 1 0 0
BITMAP
80
ENDCHAR

STARTCHAR char47
ENCODING 47
SWIDTH 34 0
DWIDTH 4 0
BBX 4 7 0 0
BITMAP
20
20
20
40
40
80
80
ENDCHAR

STARTCHAR char48
ENCODING 48
SWIDTH 51 0
DWIDTH 6 0
BBX 6 7 0 0
BITMAP
78
44
C4
84
88
88
70
ENDCHAR

STARTCHAR char49
ENCODING 49
SWIDTH 51 0
DWIDTH 6 0
BBX 4 7 1 0
BITMAP
30
E0
20
20
20
60
40
ENDCHAR

STARTCHAR char50
ENCODING 50
SWIDTH 51 0
DWIDTH 6 0
BBX 5 7 0 0
BITMAP
30
48
08
10
60
40
F0
ENDCHAR

STARTCHAR char51
ENCODING 51
SWIDTH 51 0
DWIDTH 6 0
BBX 6 7 0 0
BITMAP
38
44
0C
38
0C
88
70
ENDCHAR

STARTCHAR char52
ENCODING 52
SWIDTH 51 0
DWIDTH 6 0
BBX 5 7 0 0
BITMAP
08
18
28
48
F8
10
10
ENDCHAR

STARTCHAR char53
ENCODING 53
SWIDTH 51 0
DWIDTH 6 0
BBX 6 7 0 0
BITMAP
3C
40
70
C8
08
88
70
ENDCHAR

STARTCHAR char54
ENCODING 54
SWIDTH 51 0
DWIDTH 6 0
BBX 5 7 1 0
BITMAP
70
40
E0
90
90
90
60
ENDCHAR

STARTCHAR char55
ENCODING 55
SWIDTH 51 0
DWIDTH 6 0
BBX 5 7 1 0
BITMAP
F8
10
10
20
40
40
80
ENDCHAR

STARTCHAR char56
ENCODING 56
SWIDTH 51 0
DWIDTH 6 0
BBX 6 7 0 0
BITMAP
38
44
6C
78
88
88
70
ENDCHAR

STARTCHAR char57
ENCODING 57
SWIDTH 51 0
DWIDTH 6 0
BBX 6 7 0 0
BITMAP
78
44
C4
CC
7C
98
F0
ENDCHAR

STARTCHAR char58
ENCODING 58
SWIDTH 25 0
DWIDTH 3 0
BBX 2 5 1 0
BITMAP
40
00
00
00
80
ENDCHAR

STARTCHAR char59
ENCODING 59
SWIDTH 25 0
DWIDTH 3 0
BBX 3 7 0 -2
BITMAP
20
00
00
00
40
80
80
ENDCHAR

STARTCHAR char60
ENCODING 60
SWIDTH 51 0
DWIDTH 6 0
BBX 5 5 0 0
BITMAP
18
60
C0
30
08
ENDCHAR

STARTCHAR char61
ENCODING 61
SWIDTH 60 0
DWIDTH 7 0
BBX 7 3 0 2
BITMAP
FE
00
FE
ENDCHAR

STARTCHAR char62
ENCODING 62
SWIDTH 51 0
DWIDTH 6 0
BBX 6 5 0 0
BITMAP
60
10
0C
30
C0
ENDCHAR

STARTCHAR char63
ENCODING 63
SWIDTH 51 0
DWIDTH 6 0
BBX 5 7 1 0
BITMAP
70
88
18
20
40
00
40
ENDCHAR

STARTCHAR char64
ENCODING 64
SWIDTH 7 0
DWIDTH 11 0
BBX 8 8 1 0
BITMAP
1C
22
5B
A5
A5
AD
7E
3C
ENDCHAR

STARTCHAR char65
ENCODING 65
SWIDTH 60 0
DWIDTH 7 0
BBX 6 7 0 0
BITMAP
18
18
28
48
7C
84
84
ENDCHAR

STARTCHAR char66
ENCODING 66
SWIDTH 60 0
DWIDTH 7 0
BBX 6 7 0 0
BITMAP
78
44
44
78
84
8C
F8
ENDCHAR

STARTCHAR char67
ENCODING 67
SWIDTH 60 0
DWIDTH 7 0
BBX 7 7 0 0
BITMAP
7C
42
80
80
80
C4
78
ENDCHAR

STARTCHAR char68
ENCODING 68
SWIDTH 60 0
DWIDTH 7 0
BBX 7 7 0 0
BITMAP
7C
42
42
42
86
8C
F8
ENDCHAR

STARTCHAR char69
ENCODING 69
SWIDTH 51 0
DWIDTH 6 0
BBX 6 7 0 0
BITMAP
7C
40
40
78
C0
80
F8
ENDCHAR

STARTCHAR char70
ENCODING 70
SWIDTH 43 0
DWIDTH 5 0
BBX 6 7 0 0
BITMAP
7C
40
40
78
C0
80
80
ENDCHAR

STARTCHAR char71
ENCODING 71
SWIDTH 68 0
DWIDTH 8 0
BBX 7 7 0 0
BITMAP
3C
42
C0
8E
82
46
3A
ENDCHAR

STARTCHAR char72
ENCODING 72
SWIDTH 60 0
DWIDTH 7 0
BBX 7 7 0 0
BITMAP
42
42
46
7C
C4
84
84
ENDCHAR

STARTCHAR char73
ENCODING 73
SWIDTH 17 0
DWIDTH 2 0
BBX 3 7 0 0
BITMAP
20
40
40
40
40
80
80
ENDCHAR

STARTCHAR char74
ENCODING 74
SWIDTH 43 0
DWIDTH 5 0
BBX 5 7 0 0
BITMAP
08
08
08
08
90
90
E0
ENDCHAR

STARTCHAR char75
ENCODING 75
SWIDTH 51 0
DWIDTH 6 0
BBX 7 7 0 0
BITMAP
44
48
70
70
90
88
8C
ENDCHAR

STARTCHAR char76
ENCODING 76
SWIDTH 51 0
DWIDTH 6 0
BBX 5 7 0 0
BITMAP
40
40
40
40
C0
80
F8
ENDCHAR

STARTCHAR char77
ENCODING 77
SWIDTH 68 0
DWIDTH 8 0
BBX 8 7 0 0
BITMAP
61
63
65
A7
AA
AA
92
ENDCHAR

STARTCHAR char78
ENCODING 78
SWIDTH 60 0
DWIDTH 7 0
BBX 7 7 0 0
BITMAP
62
62
54
54
94
8C
8C
ENDCHAR

STARTCHAR char79
ENCODING 79
SWIDTH 68 0
DWIDTH 8 0
BBX 7 7 0 0
BITMAP
3C
42
82
82
82
C4
78
ENDCHAR

STARTCHAR char80
ENCODING 80
SWIDTH 51 0
DWIDTH 6 0
BBX 6 7 0 0
BITMAP
78
44
44
78
80
80
80
ENDCHAR

STARTCHAR char81
ENCODING 81
SWIDTH 68 0
DWIDTH 8 0
BBX 7 8 0 -1
BITMAP
7C
42
82
82
82
DC
7C
04
ENDCHAR

STARTCHAR char82
ENCODING 82
SWIDTH 60 0
DWIDTH 7 0
BBX 6 7 0 0
BITMAP
7C
44
44
78
88
88
88
ENDCHAR

STARTCHAR char83
ENCODING 83
SWIDTH 51 0
DWIDTH 6 0
BBX 6 7 0 0
BITMAP
7C
44
60
18
04
84
78
ENDCHAR

STARTCHAR char84
ENCODING 84
SWIDTH 51 0
DWIDTH 6 0
BBX 5 7 1 0
BITMAP
F8
20
20
40
40
40
40
ENDCHAR

STARTCHAR char85
ENCODING 85
SWIDTH 60 0
DWIDTH 7 0
BBX 7 7 0 0
BITMAP
42
42
44
C4
84
8C
78
ENDCHAR

STARTCHAR char86
ENCODING 86
SWIDTH 51 0
DWIDTH 6 0
BBX 6 7 1 0
BITMAP
84
8C
98
50
50
60
60
ENDCHAR

STARTCHAR char87
ENCODING 87
SWIDTH 77 0
DWIDTH 9 0
BBX 8 7 1 0
BITMAP
99
99
AA
AA
CE
CC
CC
ENDCHAR

STARTCHAR char88
ENCODING 88
SWIDTH 51 0
DWIDTH 6 0
BBX 7 7 -1 0
BITMAP
22
16
18
18
38
64
44
ENDCHAR

STARTCHAR char89
ENCODING 89
SWIDTH 51 0
DWIDTH 6 0
BBX 6 7 1 0
BITMAP
8C
C8
50
60
40
40
40
ENDCHAR

STARTCHAR char90
ENCODING 90
SWIDTH 51 0
DWIDTH 6 0
BBX 6 7 0 0
BITMAP
7C
08
18
30
60
C0
F8
ENDCHAR

STARTCHAR char91
ENCODING 91
SWIDTH 34 0
DWIDTH 4 0
BBX 5 9 0 -2
BITMAP
18
20
20
20
20
40
40
40
E0
ENDCHAR

STARTCHAR char92
ENCODING 92
SWIDTH 25 0
DWIDTH 3 0
BBX 3 8 0 0
BITMAP
80
80
40
40
40
20
20
20
ENDCHAR

STARTCHAR char93
ENCODING 93
SWIDTH 34 0
DWIDTH 4 0
BBX 5 9 -1 -2
BITMAP
38
18
10
10
10
20
20
20
E0
ENDCHAR

STARTCHAR char94
ENCODING 94
SWIDTH 0 0
DWIDTH 0 0
BBX 4 1 -1 8
BITMAP
70
ENDCHAR

STARTCHAR char95
ENCODING 95
SWIDTH 51 0
DWIDTH 6 0
BBX 6 1 0 -2
BITMAP
FC
ENDCHAR

STARTCHAR char96
ENCODING 96
SWIDTH 0 0
DWIDTH 0 0
BBX 3 1 -1 6
BITMAP
40
ENDCHAR

STARTCHAR char97
ENCODING 97
SWIDTH 51 0
DWIDTH 6 0
BBX 5 5 0 0
BITMAP
78
18
E8
90
E8
ENDCHAR

STARTCHAR char98
ENCODING 98
SWIDTH 51 0
DWIDTH 6 0
BBX 5 7 0 0
BITMAP
40
40
70
48
88
88
F0
ENDCHAR

STARTCHAR char99
ENCODING 99
SWIDTH 43 0
DWIDTH 5 0
BBX 5 5 0 0
BITMAP
78
C0
80
88
70
ENDCHAR

STARTCHAR char100
ENCODING 100
SWIDTH 51 0
DWIDTH 6 0
BBX 6 7 0 0
BITMAP
04
04
78
88
88
98
68
ENDCHAR

STARTCHAR char101
ENCODING 101
SWIDTH 51 0
DWIDTH 6 0
BBX 5 5 0 0
BITMAP
70
C8
F8
88
70
ENDCHAR

STARTCHAR char102
ENCODING 102
SWIDTH 25 0
DWIDTH 3 0
BBX 4 7 0 0
BITMAP
30
20
60
40
40
40
40
ENDCHAR

STARTCHAR char103
ENCODING 103
SWIDTH 51 0
DWIDTH 6 0
BBX 6 7 0 -2
BITMAP
78
88
88
98
68
90
F0
ENDCHAR

STARTCHAR char104
ENCODING 104
SWIDTH 51 0
DWIDTH 6 0
BBX 5 7 0 0
BITMAP
40
40
78
48
88
90
90
ENDCHAR

STARTCHAR char105
ENCODING 105
SWIDTH 17 0
DWIDTH 2 0
BBX 3 7 0 0
BITMAP
20
00
40
40
40
80
80
ENDCHAR

STARTCHAR char106
ENCODING 106
SWIDTH 17 0
DWIDTH 2 0
BBX 4 9 -1 -2
BITMAP
20
00
20
20
40
40
40
40
80
ENDCHAR

STARTCHAR char107
ENCODING 107
SWIDTH 43 0
DWIDTH 5 0
BBX 6 7 0 0
BITMAP
40
40
50
60
E0
90
90
ENDCHAR

STARTCHAR char108
ENCODING 108
SWIDTH 17 0
DWIDTH 2 0
BBX 3 7 0 0
BITMAP
20
40
40
40
40
80
80
ENDCHAR

STARTCHAR char109
ENCODING 109
SWIDTH 77 0
DWIDTH 9 0
BBX 8 5 0 0
BITMAP
7F
49
91
92
92
ENDCHAR

STARTCHAR char110
ENCODING 110
SWIDTH 51 0
DWIDTH 6 0
BBX 5 5 0 0
BITMAP
78
48
88
90
90
ENDCHAR

STARTCHAR char111
ENCODING 111
SWIDTH 51 0
DWIDTH 6 0
BBX 5 5 0 0
BITMAP
70
88
88
88
70
ENDCHAR

STARTCHAR char112
ENCODING 112
SWIDTH 51 0
DWIDTH 6 0
BBX 6 7 -1 -2
BITMAP
38
24
44
44
78
40
40
ENDCHAR

STARTCHAR char113
ENCODING 113
SWIDTH 51 0
DWIDTH 6 0
BBX 6 7 0 -2
BITMAP
7C
88
88
98
68
10
10
ENDCHAR

STARTCHAR char114
ENCODING 114
SWIDTH 34 0
DWIDTH 4 0
BBX 4 5 0 0
BITMAP
70
40
40
80
80
ENDCHAR

STARTCHAR char115
ENCODING 115
SWIDTH 43 0
DWIDTH 5 0
BBX 5 5 0 0
BITMAP
78
40
30
90
60
ENDCHAR

STARTCHAR char116
ENCODING 116
SWIDTH 25 0
DWIDTH 3 0
BBX 3 7 0 0
BITMAP
20
40
E0
40
40
40
40
ENDCHAR

STARTCHAR char117
ENCODING 117
SWIDTH 51 0
DWIDTH 6 0
BBX 5 5 0 0
BITMAP
48
C8
88
98
F0
ENDCHAR

STARTCHAR char118
ENCODING 118
SWIDTH 43 0
DWIDTH 5 0
BBX 5 5 0 0
BITMAP
88
58
50
60
60
ENDCHAR

STARTCHAR char119
ENCODING 119
SWIDTH 68 0
DWIDTH 8 0
BBX 8 5 0 0
BITMAP
9A
9A
6E
6C
48
ENDCHAR

STARTCHAR char120
ENCODING 120
SWIDTH 43 0
DWIDTH 5 0
BBX 6 5 -1 0
BITMAP
2C
38
30
70
48
ENDCHAR

STARTCHAR char121
ENCODING 121
SWIDTH 43 0
DWIDTH 5 0
BBX 5 7 0 -2
BITMAP
48
58
50
60
60
40
C0
ENDCHAR

STARTCHAR char122
ENCODING 122
SWIDTH 43 0
DWIDTH 5 0
BBX 5 5 0 0
BITMAP
78
10
20
C0
F0
ENDCHAR

STARTCHAR char123
ENCODING 123
SWIDTH 34 0
DWIDTH 4 0
BBX 3 9 0 -2
BITMAP
60
40
40
40
80
40
40
40
60
ENDCHAR

STARTCHAR char124
ENCODING 124
SWIDTH 25 0
DWIDTH 3 0
BBX 1 8 1 0
BITMAP
80
80
80
80
80
80
80
80
ENDCHAR

STARTCHAR char125
ENCODING 125
SWIDTH 34 0
DWIDTH 4 0
BBX 3 9 0 -2
BITMAP
C0
40
40
60
20
40
40
40
C0
ENDCHAR

STARTCHAR char126
ENCODING 126
SWIDTH 0 0
DWIDTH 0 0
BBX 4 1 -1 8
BITMAP
70
ENDCHAR

STARTCHAR char128
ENCODING 128
SWIDTH 51 0
DWIDTH 6 0
BBX 7 7 0 0
BITMAP
1C
20
F8
40
40
40
38
ENDCHAR

STARTCHAR char130
ENCODING 130
SWIDTH 17 0
DWIDTH 2 0
BBX 1 3 0 -2
BITMAP
80
80
80
ENDCHAR

STARTCHAR char131
ENCODING 131
SWIDTH 0 0
DWIDTH 0 0
BBX 4 1 -1 8
BITMAP
70
ENDCHAR

STARTCHAR char132
ENCODING 132
SWIDTH 34 0
DWIDTH 4 0
BBX 3 3 0 -2
BITMAP
A0
A0
C0
ENDCHAR

STARTCHAR char133
ENCODING 133
SWIDTH 7 0
DWIDTH 11 0
BBX 7 1 2 0
BITMAP
92
ENDCHAR

STARTCHAR char134
ENCODING 134
SWIDTH 43 0
DWIDTH 5 0
BBX 4 8 1 -1
BITMAP
20
20
F0
40
40
40
40
80
ENDCHAR

STARTCHAR char136
ENCODING 136
SWIDTH 0 0
DWIDTH 0 0
BBX 3 1 -1 6
BITMAP
60
ENDCHAR

STARTCHAR char138
ENCODING 138
SWIDTH 86 0
DWIDTH 10 0
BBX 0 0 0 0
BITMAP
ENDCHAR

STARTCHAR char139
ENCODING 139
SWIDTH 34 0
DWIDTH 4 0
BBX 2 4 1 1
BITMAP
40
80
80
40
ENDCHAR

STARTCHAR char140
ENCODING 140
SWIDTH 7 0
DWIDTH 11 0
BBX 11 7 0 0
BITMAP
7FE0
4200
8200
87C0
8400
8C00
77C0
ENDCHAR

STARTCHAR char141
ENCODING 141
SWIDTH 86 0
DWIDTH 10 0
BBX 0 0 0 0
BITMAP
ENDCHAR

STARTCHAR char145
ENCODING 145
SWIDTH 17 0
DWIDTH 2 0
BBX 2 2 1 5
BITMAP
C0
80
ENDCHAR

STARTCHAR char146
ENCODING 146
SWIDTH 17 0
DWIDTH 2 0
BBX 2 2 1 5
BITMAP
40
80
ENDCHAR

STARTCHAR char147
ENCODING 147
SWIDTH 34 0
DWIDTH 4 0
BBX 3 2 1 5
BITMAP
E0
A0
ENDCHAR

STARTCHAR char148
ENCODING 148
SWIDTH 34 0
DWIDTH 4 0
BBX 4 2 1 5
BITMAP
60
A0
ENDCHAR

STARTCHAR char149
ENCODING 149
SWIDTH 34 0
DWIDTH 4 0
BBX 3 3 0 2
BITMAP
E0
E0
E0
ENDCHAR

STARTCHAR char150
ENCODING 150
SWIDTH 51 0
DWIDTH 6 0
BBX 5 1 0 2
BITMAP
F8
ENDCHAR

STARTCHAR char151
ENCODING 151
SWIDTH 60 0
DWIDTH 7 0
BBX 7 1 0 3
BITMAP
FE
ENDCHAR

STARTCHAR char152
ENCODING 152
SWIDTH 0 0
DWIDTH 0 0
BBX 4 1 -1 6
BITMAP
F0
ENDCHAR

STARTCHAR char153
ENCODING 153
SWIDTH 86 0
DWIDTH 10 0
BBX 9 4 0 3
BITMAP
F500
4F00
4F00
6F80
ENDCHAR

STARTCHAR char155
ENCODING 155
SWIDTH 34 0
DWIDTH 4 0
BBX 2 4 1 1
BITMAP
80
80
C0
80
ENDCHAR

STARTCHAR char156
ENCODING 156
SWIDTH 77 0
DWIDTH 9 0
BBX 9 6 0 0
BITMAP
2000
7F00
8880
8F80
9800
7F00
ENDCHAR

STARTCHAR char157
ENCODING 157
SWIDTH 86 0
DWIDTH 10 0
BBX 0 0 0 0
BITMAP
ENDCHAR

STARTCHAR char159
ENCODING 159
SWIDTH 51 0
DWIDTH 6 0
BBX 6 9 1 0
BITMAP
50
00
88
58
50
60
40
40
40
ENDCHAR

STARTCHAR char160
ENCODING 160
SWIDTH 25 0
DWIDTH 3 0
BBX 0 0 0 0
BITMAP
ENDCHAR

STARTCHAR char161
ENCODING 161
SWIDTH 25 0
DWIDTH 3 0
BBX 3 7 0 0
BITMAP
20
40
40
40
40
80
80
ENDCHAR

STARTCHAR char162
ENCODING 162
SWIDTH 43 0
DWIDTH 5 0
BBX 5 7 0 -1
BITMAP
10
78
D0
A0
A8
70
40
ENDCHAR

STARTCHAR char163
ENCODING 163
SWIDTH 51 0
DWIDTH 6 0
BBX 6 8 0 0
BITMAP
38
64
44
40
F0
40
40
F8
ENDCHAR

STARTCHAR char164
ENCODING 164
SWIDTH 0 0
DWIDTH 0 0
BBX 3 1 0 8
BITMAP
40
ENDCHAR

STARTCHAR char165
ENCODING 165
SWIDTH 0 0
DWIDTH 0 0
BBX 3 1 0 8
BITMAP
C0
ENDCHAR

STARTCHAR char166
ENCODING 166
SWIDTH 86 0
DWIDTH 10 0
BBX 0 0 0 0
BITMAP
ENDCHAR

STARTCHAR char167
ENCODING 167
SWIDTH 51 0
DWIDTH 6 0
BBX 5 9 0 -2
BITMAP
38
20
D0
90
C8
28
10
90
E0
ENDCHAR

STARTCHAR char168
ENCODING 168
SWIDTH 0 0
DWIDTH 0 0
BBX 3 1 -1 6
BITMAP
A0
ENDCHAR

STARTCHAR char169
ENCODING 169
SWIDTH 68 0
DWIDTH 8 0
BBX 8 7 0 0
BITMAP
3C
5A
A5
A1
A1
5A
3C
ENDCHAR

STARTCHAR char170
ENCODING 170
SWIDTH 0 0
DWIDTH 0 0
BBX 3 1 0 8
BITMAP
A0
ENDCHAR

STARTCHAR char171
ENCODING 171
SWIDTH 43 0
DWIDTH 5 0
BBX 5 4 0 1
BITMAP
48
50
A0
50
ENDCHAR

STARTCHAR char172
ENCODING 172
SWIDTH 68 0
DWIDTH 8 0
BBX 7 3 0 0
BITMAP
FE
02
02
ENDCHAR

STARTCHAR char174
ENCODING 174
SWIDTH 68 0
DWIDTH 8 0
BBX 8 7 0 0
BITMAP
38
7E
95
99
99
F6
3C
ENDCHAR

STARTCHAR char176
ENCODING 176
SWIDTH 25 0
DWIDTH 3 0
BBX 3 3 1 4
BITMAP
C0
A0
E0
ENDCHAR

STARTCHAR char177
ENCODING 177
SWIDTH 51 0
DWIDTH 6 0
BBX 5 7 0 0
BITMAP
20
20
20
F8
20
20
F8
ENDCHAR

STARTCHAR char179
ENCODING 179
SWIDTH 86 0
DWIDTH 10 0
BBX 0 0 0 0
BITMAP
ENDCHAR

STARTCHAR char180
ENCODING 180
SWIDTH 0 0
DWIDTH 0 0
BBX 3 1 0 6
BITMAP
40
ENDCHAR

STARTCHAR char182
ENCODING 182
SWIDTH 60 0
DWIDTH 7 0
BBX 5 10 1 -2
BITMAP
78
D0
D0
D0
50
50
50
50
50
50
ENDCHAR

STARTCHAR char183
ENCODING 183
SWIDTH 17 0
DWIDTH 2 0
BBX 1 1 1 3
BITMAP
80
ENDCHAR

STARTCHAR char184
ENCODING 184
SWIDTH 0 0
DWIDTH 0 0
BBX 1 2 -1 -2
BITMAP
80
80
ENDCHAR

STARTCHAR char186
ENCODING 186
SWIDTH 0 0
DWIDTH 0 0
BBX 4 1 -1 8
BITMAP
70
ENDCHAR

STARTCHAR char187
ENCODING 187
SWIDTH 43 0
DWIDTH 5 0
BBX 4 4 0 1
BITMAP
50
50
D0
A0
ENDCHAR

STARTCHAR char189
ENCODING 189
SWIDTH 86 0
DWIDTH 10 0
BBX 0 0 0 0
BITMAP
ENDCHAR

STARTCHAR char191
ENCODING 191
SWIDTH 51 0
DWIDTH 6 0
BBX 5 7 0 0
BITMAP
10
10
20
40
80
90
70
ENDCHAR

STARTCHAR char192
ENCODING 192
SWIDTH 60 0
DWIDTH 7 0
BBX 6 9 0 0
BITMAP
18
00
18
28
28
48
7C
84
84
ENDCHAR

STARTCHAR char193
ENCODING 193
SWIDTH 60 0
DWIDTH 7 0
BBX 6 9 0 0
BITMAP
08
00
18
28
28
48
7C
84
84
ENDCHAR

STARTCHAR char194
ENCODING 194
SWIDTH 60 0
DWIDTH 7 0
BBX 6 9 0 0
BITMAP
1C
00
18
28
28
48
7C
84
84
ENDCHAR

STARTCHAR char195
ENCODING 195
SWIDTH 60 0
DWIDTH 7 0
BBX 6 9 0 0
BITMAP
1C
00
18
28
28
48
7C
84
84
ENDCHAR

STARTCHAR char196
ENCODING 196
SWIDTH 60 0
DWIDTH 7 0
BBX 6 9 0 0
BITMAP
14
00
18
28
28
48
7C
84
84
ENDCHAR

STARTCHAR char197
ENCODING 197
SWIDTH 60 0
DWIDTH 7 0
BBX 6 10 0 0
BITMAP
1C
14
1C
18
28
28
48
FC
84
84
ENDCHAR

STARTCHAR char198
ENCODING 198
SWIDTH 86 0
DWIDTH 10 0
BBX 11 7 -1 0
BITMAP
0FE0
0A00
1200
27C0
3C00
4400
47C0
ENDCHAR

STARTCHAR char199
ENCODING 199
SWIDTH 60 0
DWIDTH 7 0
BBX 7 9 0 -2
BITMAP
7C
42
80
80
80
C4
78
10
20
ENDCHAR

STARTCHAR char200
ENCODING 200
SWIDTH 51 0
DWIDTH 6 0
BBX 6 9 0 0
BITMAP
10
00
7C
40
40
78
C0
80
F8
ENDCHAR

STARTCHAR char201
ENCODING 201
SWIDTH 51 0
DWIDTH 6 0
BBX 6 9 0 0
BITMAP
10
00
7C
40
40
78
C0
80
F8
ENDCHAR

STARTCHAR char202
ENCODING 202
SWIDTH 51 0
DWIDTH 6 0
BBX 6 9 0 0
BITMAP
18
00
7C
40
40
78
C0
80
F8
ENDCHAR

STARTCHAR char203
ENCODING 203
SWIDTH 51 0
DWIDTH 6 0
BBX 6 9 0 0
BITMAP
28
00
7C
40
40
78
C0
80
F8
ENDCHAR

STARTCHAR char204
ENCODING 204
SWIDTH 17 0
DWIDTH 2 0
BBX 3 9 0 0
BITMAP
20
00
20
40
40
40
40
80
80
ENDCHAR

STARTCHAR char205
ENCODING 205
SWIDTH 17 0
DWIDTH 2 0
BBX 4 9 0 0
BITMAP
20
00
20
40
40
40
40
80
80
ENDCHAR

STARTCHAR char206
ENCODING 206
SWIDTH 17 0
DWIDTH 2 0
BBX 4 9 0 0
BITMAP
70
00
60
40
40
40
40
80
80
ENDCHAR

STARTCHAR char207
ENCODING 207
SWIDTH 17 0
DWIDTH 2 0
BBX 4 9 0 0
BITMAP
50
00
20
40
40
40
40
80
80
ENDCHAR

STARTCHAR char209
ENCODING 209
SWIDTH 60 0
DWIDTH 7 0
BBX 7 9 0 0
BITMAP
3C
00
62
62
54
D4
94
8C
8C
ENDCHAR

STARTCHAR char210
ENCODING 210
SWIDTH 68 0
DWIDTH 8 0
BBX 7 9 0 0
BITMAP
08
00
3C
42
82
82
82
C4
78
ENDCHAR

STARTCHAR char211
ENCODING 211
SWIDTH 68 0
DWIDTH 8 0
BBX 7 9 0 0
BITMAP
08
00
3C
42
82
82
82
C4
78
ENDCHAR

STARTCHAR char212
ENCODING 212
SWIDTH 68 0
DWIDTH 8 0
BBX 7 9 0 0
BITMAP
0C
00
3C
42
82
82
82
C4
78
ENDCHAR

STARTCHAR char213
ENCODING 213
SWIDTH 68 0
DWIDTH 8 0
BBX 7 9 0 0
BITMAP
1C
00
3C
42
82
82
82
C4
78
ENDCHAR

STARTCHAR char214
ENCODING 214
SWIDTH 68 0
DWIDTH 8 0
BBX 7 9 0 0
BITMAP
14
00
3C
42
82
82
82
C4
78
ENDCHAR

STARTCHAR char216
ENCODING 216
SWIDTH 68 0
DWIDTH 8 0
BBX 7 8 0 0
BITMAP
02
3E
46
8A
92
A2
C4
B8
ENDCHAR

STARTCHAR char217
ENCODING 217
SWIDTH 60 0
DWIDTH 7 0
BBX 7 9 0 0
BITMAP
18
00
42
46
44
C4
84
8C
78
ENDCHAR

STARTCHAR char218
ENCODING 218
SWIDTH 60 0
DWIDTH 7 0
BBX 7 9 0 0
BITMAP
08
00
42
46
44
C4
84
8C
78
ENDCHAR

STARTCHAR char219
ENCODING 219
SWIDTH 60 0
DWIDTH 7 0
BBX 7 9 0 0
BITMAP
1C
00
42
46
44
C4
84
8C
78
ENDCHAR

STARTCHAR char220
ENCODING 220
SWIDTH 60 0
DWIDTH 7 0
BBX 7 9 0 0
BITMAP
14
00
42
46
44
C4
84
8C
78
ENDCHAR

STARTCHAR char222
ENCODING 222
SWIDTH 86 0
DWIDTH 10 0
BBX 0 0 0 0
BITMAP
ENDCHAR

STARTCHAR char223
ENCODING 223
SWIDTH 51 0
DWIDTH 6 0
BBX 5 7 0 0
BITMAP
38
48
70
50
88
90
B0
ENDCHAR

STARTCHAR char224
ENCODING 224
SWIDTH 51 0
DWIDTH 6 0
BBX 5 7 0 0
BITMAP
10
00
78
18
E8
90
E8
ENDCHAR

STARTCHAR char225
ENCODING 225
SWIDTH 51 0
DWIDTH 6 0
BBX 5 7 0 0
BITMAP
10
00
78
18
E8
90
E8
ENDCHAR

STARTCHAR char226
ENCODING 226
SWIDTH 51 0
DWIDTH 6 0
BBX 5 7 0 0
BITMAP
38
00
78
18
E8
90
E8
ENDCHAR

STARTCHAR char227
ENCODING 227
SWIDTH 51 0
DWIDTH 6 0
BBX 5 7 0 0
BITMAP
38
00
78
18
E8
90
F8
ENDCHAR

STARTCHAR char228
ENCODING 228
SWIDTH 51 0
DWIDTH 6 0
BBX 5 7 0 0
BITMAP
28
78
48
18
E8
90
E8
ENDCHAR

STARTCHAR char229
ENCODING 229
SWIDTH 51 0
DWIDTH 6 0
BBX 5 8 0 0
BITMAP
30
38
70
48
08
78
90
E8
ENDCHAR

STARTCHAR char230
ENCODING 230
SWIDTH 77 0
DWIDTH 9 0
BBX 8 6 0 0
BITMAP
20
76
19
FF
98
6E
ENDCHAR

STARTCHAR char231
ENCODING 231
SWIDTH 43 0
DWIDTH 5 0
BBX 5 7 0 -2
BITMAP
78
C0
80
88
70
20
20
ENDCHAR

STARTCHAR char232
ENCODING 232
SWIDTH 51 0
DWIDTH 6 0
BBX 5 7 0 0
BITMAP
10
00
70
C8
F8
88
70
ENDCHAR

STARTCHAR char233
ENCODING 233
SWIDTH 51 0
DWIDTH 6 0
BBX 5 7 0 0
BITMAP
10
00
70
C8
F8
88
70
ENDCHAR

STARTCHAR char234
ENCODING 234
SWIDTH 51 0
DWIDTH 6 0
BBX 5 7 0 0
BITMAP
38
00
70
C8
F8
88
70
ENDCHAR

STARTCHAR char235
ENCODING 235
SWIDTH 51 0
DWIDTH 6 0
BBX 5 7 0 0
BITMAP
28
00
70
C8
F8
88
70
ENDCHAR

STARTCHAR char236
ENCODING 236
SWIDTH 17 0
DWIDTH 2 0
BBX 3 7 0 0
BITMAP
40
00
40
40
40
80
80
ENDCHAR

STARTCHAR char237
ENCODING 237
SWIDTH 17 0
DWIDTH 2 0
BBX 4 7 0 0
BITMAP
20
00
40
40
40
80
80
ENDCHAR

STARTCHAR char238
ENCODING 238
SWIDTH 17 0
DWIDTH 2 0
BBX 3 7 0 0
BITMAP
60
00
40
40
40
80
80
ENDCHAR

STARTCHAR char239
ENCODING 239
SWIDTH 17 0
DWIDTH 2 0
BBX 3 7 0 0
BITMAP
A0
00
40
40
40
80
80
ENDCHAR

STARTCHAR char241
ENCODING 241
SWIDTH 51 0
DWIDTH 6 0
BBX 5 7 0 0
BITMAP
38
00
78
48
88
90
90
ENDCHAR

STARTCHAR char242
ENCODING 242
SWIDTH 51 0
DWIDTH 6 0
BBX 5 7 0 0
BITMAP
10
00
70
88
88
88
70
ENDCHAR

STARTCHAR char243
ENCODING 243
SWIDTH 51 0
DWIDTH 6 0
BBX 5 7 0 0
BITMAP
10
00
70
88
88
88
70
ENDCHAR

STARTCHAR char244
ENCODING 244
SWIDTH 51 0
DWIDTH 6 0
BBX 5 7 0 0
BITMAP
18
00
70
88
88
88
70
ENDCHAR

STARTCHAR char245
ENCODING 245
SWIDTH 51 0
DWIDTH 6 0
BBX 6 7 0 0
BITMAP
38
00
70
88
88
88
70
ENDCHAR

STARTCHAR char246
ENCODING 246
SWIDTH 51 0
DWIDTH 6 0
BBX 5 7 0 0
BITMAP
28
30
48
88
88
88
70
ENDCHAR

STARTCHAR char247
ENCODING 247
SWIDTH 51 0
DWIDTH 6 0
BBX 5 4 0 1
BITMAP
20
00
F8
20
ENDCHAR

STARTCHAR char248
ENCODING 248
SWIDTH 51 0
DWIDTH 6 0
BBX 6 6 0 0
BITMAP
08
78
98
A8
C8
F0
ENDCHAR

STARTCHAR char249
ENCODING 249
SWIDTH 51 0
DWIDTH 6 0
BBX 5 7 0 0
BITMAP
10
00
48
C8
88
98
F0
ENDCHAR

STARTCHAR char250
ENCODING 250
SWIDTH 51 0
DWIDTH 6 0
BBX 5 7 0 0
BITMAP
10
00
48
C8
88
98
F0
ENDCHAR

STARTCHAR char251
ENCODING 251
SWIDTH 51 0
DWIDTH 6 0
BBX 5 7 0 0
BITMAP
38
00
48
C8
88
98
F0
ENDCHAR

STARTCHAR char252
ENCODING 252
SWIDTH 51 0
DWIDTH 6 0
BBX 5 7 0 0
BITMAP
28
00
48
C8
88
98
F0
ENDCHAR

STARTCHAR char255
ENCODING 255
SWIDTH 43 0
DWIDTH 5 0
BBX 5 9 0 -2
BITMAP
50
00
48
50
50
60
60
40
C0
ENDCHAR
ENDFONT
